<svg width="32" height="32" viewBox="0 0 32 32" fill="none" xmlns="http://www.w3.org/2000/svg">
<g clip-path="url(#clip0_100_1260)">
<path d="M22.1275 16.3136C24.6515 16.3136 26.8229 14.0599 26.8229 11.1251C26.8229 8.22564 24.6401 6.07764 22.1275 6.07764C19.6155 6.07764 17.4321 8.27249 17.4321 11.1485C17.4321 14.0599 19.6035 16.3136 22.1275 16.3136ZM8.61606 16.5839C10.7995 16.5839 12.7018 14.6114 12.7018 12.0639C12.7018 9.54049 10.7875 7.67364 8.61606 7.67364C6.4332 7.67364 4.50749 9.58735 4.51949 12.0879C4.51949 14.6114 6.4212 16.5839 8.61663 16.5839M2.06635 27.1839H10.9875C9.76692 25.4114 11.2578 21.8428 13.7818 19.8942C12.4789 19.0256 10.7995 18.3799 8.60463 18.3799C3.31035 18.3794 6.10352e-05 22.2879 6.10352e-05 25.5399C6.10352e-05 26.5971 0.586918 27.1839 2.06635 27.1839ZM14.7441 27.1839H29.4995C31.3423 27.1839 32.0001 26.6554 32.0001 25.6222C32.0001 22.5936 28.2081 18.4148 22.1161 18.4148C16.0355 18.4148 12.2435 22.5936 12.2435 25.6228C12.2435 26.6554 12.9006 27.1839 14.7441 27.1839Z" fill="#FFF3EC"/>
</g>
<defs>
<clipPath id="clip0_100_1260">
<rect width="32" height="32" fill="white"/>
</clipPath>
</defs>
</svg>
