<svg width="32" height="32" viewBox="0 0 32 32" fill="none" xmlns="http://www.w3.org/2000/svg">
<path d="M2.66675 12.0001C2.66675 9.48541 2.66675 8.22941 3.44808 7.44808C4.22941 6.66675 5.48541 6.66675 8.00008 6.66675H24.0001C26.5147 6.66675 27.7707 6.66675 28.5521 7.44808C29.3334 8.22941 29.3334 9.48541 29.3334 12.0001C29.3334 12.6281 29.3334 12.9427 29.1387 13.1387C28.9427 13.3334 28.6267 13.3334 28.0001 13.3334H4.00008C3.37208 13.3334 3.05741 13.3334 2.86141 13.1387C2.66675 12.9427 2.66675 12.6267 2.66675 12.0001Z" fill="#FFF3EC"/>
<path fill-rule="evenodd" clip-rule="evenodd" d="M2.66675 24C2.66675 26.5147 2.66675 27.7707 3.44808 28.552C4.22941 29.3333 5.48541 29.3333 8.00008 29.3333H24.0001C26.5147 29.3333 27.7707 29.3333 28.5521 28.552C29.3334 27.7707 29.3334 26.5147 29.3334 24V17.3333C29.3334 16.7053 29.3334 16.3907 29.1387 16.1947C28.9427 16 28.6267 16 28.0001 16H4.00008C3.37208 16 3.05741 16 2.86141 16.1947C2.66675 16.3907 2.66675 16.7067 2.66675 17.3333V24ZM9.33342 20C9.33342 19.372 9.33341 19.0573 9.52808 18.8613C9.72408 18.6667 10.0401 18.6667 10.6667 18.6667H13.3334C13.9614 18.6667 14.2761 18.6667 14.4721 18.8613C14.6667 19.0573 14.6667 19.372 14.6667 20C14.6667 20.628 14.6667 20.9427 14.4721 21.1387C14.2761 21.3333 13.9601 21.3333 13.3334 21.3333H10.6667C10.0387 21.3333 9.72408 21.3333 9.52808 21.1387C9.33341 20.9427 9.33342 20.6267 9.33342 20ZM9.52808 24.1947C9.33341 24.3907 9.33342 24.7067 9.33342 25.3333C9.33342 25.96 9.33341 26.276 9.52808 26.472C9.72408 26.6667 10.0401 26.6667 10.6667 26.6667H13.3334C13.9614 26.6667 14.2761 26.6667 14.4721 26.472C14.6667 26.276 14.6667 25.96 14.6667 25.3333C14.6667 24.7067 14.6667 24.3907 14.4721 24.1947C14.2761 24 13.9601 24 13.3334 24H10.6667C10.0387 24 9.72408 24 9.52808 24.1947ZM17.3334 20C17.3334 19.372 17.3334 19.0573 17.5281 18.8613C17.7241 18.6667 18.0401 18.6667 18.6667 18.6667H21.3334C21.9614 18.6667 22.2761 18.6667 22.4721 18.8613C22.6667 19.0573 22.6667 19.372 22.6667 20C22.6667 20.628 22.6667 20.9427 22.4721 21.1387C22.2761 21.3333 21.9601 21.3333 21.3334 21.3333H18.6667C18.0387 21.3333 17.7241 21.3333 17.5281 21.1387C17.3334 20.9427 17.3334 20.6267 17.3334 20ZM17.5281 24.1947C17.3334 24.3907 17.3334 24.7067 17.3334 25.3333C17.3334 25.96 17.3334 26.276 17.5281 26.472C17.7241 26.6667 18.0387 26.6667 18.6667 26.6667H21.3334C21.9614 26.6667 22.2761 26.6667 22.4721 26.472C22.6667 26.276 22.6667 25.96 22.6667 25.3333C22.6667 24.7067 22.6667 24.3907 22.4721 24.1947C22.2761 24 21.9601 24 21.3334 24H18.6667C18.0387 24 17.7241 24 17.5281 24.1947Z" fill="#FFF3EC"/>
<path d="M9.33344 4V8M22.6668 4V8" stroke="#FFF3EC" stroke-width="2.66667" stroke-linecap="round"/>
</svg>
