<svg width="32" height="32" viewBox="0 0 32 32" fill="none" xmlns="http://www.w3.org/2000/svg">
<path d="M13.3334 18.6667H18.6667V16.0001H13.3334V18.6667ZM13.3334 14.6667H24.0001V12.0001H13.3334V14.6667ZM13.3334 10.6667H24.0001V8.00008H13.3334V10.6667ZM10.6667 24.0001C9.93341 24.0001 9.30586 23.7392 8.78408 23.2174C8.2623 22.6956 8.00097 22.0676 8.00008 21.3334V5.33341C8.00008 4.60008 8.26141 3.97253 8.78408 3.45075C9.30675 2.92897 9.9343 2.66764 10.6667 2.66675H26.6667C27.4001 2.66675 28.0281 2.92808 28.5507 3.45075C29.0734 3.97341 29.3343 4.60097 29.3334 5.33341V21.3334C29.3334 22.0667 29.0725 22.6947 28.5507 23.2174C28.029 23.7401 27.401 24.001 26.6667 24.0001H10.6667ZM5.33341 29.3334C4.60008 29.3334 3.97253 29.0725 3.45075 28.5507C2.92897 28.029 2.66764 27.401 2.66675 26.6667V8.00008H5.33341V26.6667H24.0001V29.3334H5.33341Z" fill="#FFF3EC"/>
</svg>
