<svg width="28" height="28" viewBox="0 0 28 28" fill="none" xmlns="http://www.w3.org/2000/svg">
<path d="M11.3333 0.666749C9.66475 0.667641 8.01966 1.05997 6.53026 1.8122C5.04087 2.56443 3.74872 3.65558 2.75767 4.99796C1.76662 6.34033 1.10431 7.89649 0.823981 9.54135C0.54365 11.1862 0.653113 12.8739 1.14357 14.4688C1.63403 16.0636 2.49181 17.5212 3.64796 18.7243C4.80411 19.9274 6.22638 20.8425 7.80047 21.396C9.37455 21.9496 11.0565 22.1261 12.7113 21.9114C14.366 21.6968 15.9472 21.0969 17.328 20.1601L23.92 26.7467C24.1031 26.9432 24.3239 27.1009 24.5692 27.2102C24.8146 27.3195 25.0794 27.3783 25.3479 27.383C25.6165 27.3877 25.8832 27.3383 26.1323 27.2377C26.3813 27.1372 26.6075 26.9874 26.7974 26.7975C26.9873 26.6076 27.1371 26.3814 27.2377 26.1323C27.3382 25.8833 27.3876 25.6166 27.3829 25.348C27.3782 25.0795 27.3194 24.8146 27.2101 24.5693C27.1008 24.324 26.9432 24.1032 26.7467 23.9201L20.16 17.3281C21.2497 15.7243 21.8816 13.8538 21.9878 11.9178C22.0941 9.98173 21.6706 8.05335 20.7629 6.33998C19.8552 4.62661 18.4976 3.19305 16.8362 2.19346C15.1748 1.19387 13.2723 0.666045 11.3333 0.666749ZM4.66666 11.3334C4.66666 9.56531 5.36904 7.86961 6.61928 6.61937C7.86953 5.36913 9.56522 4.66675 11.3333 4.66675C13.1014 4.66675 14.7971 5.36913 16.0474 6.61937C17.2976 7.86961 18 9.56531 18 11.3334C18 13.1015 17.2976 14.7972 16.0474 16.0475C14.7971 17.2977 13.1014 18.0001 11.3333 18.0001C9.56522 18.0001 7.86953 17.2977 6.61928 16.0475C5.36904 14.7972 4.66666 13.1015 4.66666 11.3334Z" fill="black"/>
</svg>
